<mxfile host="app.diagrams.net" modified="2021-06-30T02:12:21.182Z" agent="5.0 (Windows NT 10.0; Win64; x64) AppleWebKit/537.36 (KHTML, like Gecko) Chrome/91.0.4472.124 Safari/537.36" etag="UEi-wAJrR9R5WMHCjSBS" version="14.8.2" type="github">
  <diagram id="erkKNV7hag_VrBJUwJfB" name="Page-1">
    <mxGraphModel dx="1146" dy="520" grid="1" gridSize="10" guides="1" tooltips="1" connect="1" arrows="1" fold="1" page="1" pageScale="1" pageWidth="827" pageHeight="1169" math="0" shadow="0">
      <root>
        <mxCell id="0" />
        <mxCell id="1" parent="0" />
        <mxCell id="IipbmtU04DfRfOnYhg1Q-1" value="Tên render" style="rounded=1;whiteSpace=wrap;html=1;" vertex="1" parent="1">
          <mxGeometry x="120" y="40" width="320" height="40" as="geometry" />
        </mxCell>
        <mxCell id="IipbmtU04DfRfOnYhg1Q-2" value="Sub_status" style="rounded=1;whiteSpace=wrap;html=1;" vertex="1" parent="1">
          <mxGeometry x="460" y="40" width="100" height="40" as="geometry" />
        </mxCell>
        <mxCell id="IipbmtU04DfRfOnYhg1Q-3" value="Ảnh nền (Có hoặc không)" style="rounded=1;whiteSpace=wrap;html=1;" vertex="1" parent="1">
          <mxGeometry x="120" y="120" width="230" height="40" as="geometry" />
        </mxCell>
        <mxCell id="IipbmtU04DfRfOnYhg1Q-4" value="H/Ứ nền (Có hoặc không)" style="rounded=1;whiteSpace=wrap;html=1;" vertex="1" parent="1">
          <mxGeometry x="370" y="120" width="190" height="40" as="geometry" />
        </mxCell>
        <mxCell id="IipbmtU04DfRfOnYhg1Q-5" value="Logo" style="rounded=1;whiteSpace=wrap;html=1;" vertex="1" parent="1">
          <mxGeometry x="120" y="280" width="440" height="40" as="geometry" />
        </mxCell>
        <mxCell id="IipbmtU04DfRfOnYhg1Q-6" value="Kho nhạc" style="rounded=1;whiteSpace=wrap;html=1;" vertex="1" parent="1">
          <mxGeometry x="120" y="200" width="440" height="40" as="geometry" />
        </mxCell>
      </root>
    </mxGraphModel>
  </diagram>
</mxfile>
